<svg width="8" height="10" viewBox="0 0 8 10" fill="none" xmlns="http://www.w3.org/2000/svg">
<path d="M0.257812 0.00585938H3.36816C4.78548 0.00585938 5.81315 0.208659 6.45117 0.614258C7.09375 1.0153 7.41504 1.6556 7.41504 2.53516C7.41504 3.13216 7.27376 3.62207 6.99121 4.00488C6.71322 4.3877 6.3418 4.61784 5.87695 4.69531V4.76367C6.51042 4.90495 6.96615 5.16927 7.24414 5.55664C7.52669 5.94401 7.66797 6.45898 7.66797 7.10156C7.66797 8.01302 7.33757 8.72396 6.67676 9.23438C6.02051 9.74479 5.12728 10 3.99707 10H0.257812V0.00585938ZM2.37695 3.96387H3.60742C4.18164 3.96387 4.59635 3.875 4.85156 3.69727C5.11133 3.51953 5.24121 3.22559 5.24121 2.81543C5.24121 2.43262 5.09993 2.15918 4.81738 1.99512C4.53939 1.8265 4.09733 1.74219 3.49121 1.74219H2.37695V3.96387ZM2.37695 5.64551V8.25H3.75781C4.34115 8.25 4.77181 8.13835 5.0498 7.91504C5.3278 7.69173 5.4668 7.34993 5.4668 6.88965C5.4668 6.06022 4.87435 5.64551 3.68945 5.64551H2.37695Z" fill="#3B3B3B"/>
</svg>
