<svg width="20" height="20" viewBox="0 0 20 20" fill="none" xmlns="http://www.w3.org/2000/svg">
<path d="M10.8889 7.55656V5.66678C10.8889 5.533 10.9693 5.41211 11.0925 5.35967C11.2151 5.30767 11.3587 5.33389 11.4542 5.42767L15.232 9.09434C15.2969 9.157 15.3333 9.24322 15.3333 9.33345C15.3333 9.42367 15.2969 9.50989 15.232 9.57256L11.4542 13.2392C11.3578 13.3326 11.2147 13.3588 11.0925 13.3072C10.9693 13.2548 10.8889 13.1339 10.8889 13.0001V11.1112H10.2587C8.19823 11.1112 6.29868 12.2312 5.30179 14.0321L5.29246 14.049C5.2329 14.1574 5.12001 14.2223 5.00001 14.2223C4.97246 14.2223 4.9449 14.2192 4.91734 14.2121C4.76979 14.1743 4.66668 14.0414 4.66668 13.889C4.66668 10.4339 7.44757 7.61611 10.8889 7.55656Z" fill="#3B3B3B"/>
</svg>
