<svg width="14" height="14" viewBox="0 0 14 14" fill="none" xmlns="http://www.w3.org/2000/svg">
<path d="M6.99966 13.9997C3.13543 13.9954 0.00390796 10.8639 -0.000335693 6.99966V6.85966C0.0766163 3.01284 3.24387 -0.0507613 7.09113 0.000285429C10.9384 0.0513321 14.0232 3.19789 13.9981 7.0454C13.973 10.8929 10.8473 13.9989 6.99966 13.9997ZM6.99966 1.39967C3.90687 1.39967 1.39966 3.90687 1.39966 6.99966C1.39966 10.0925 3.90687 12.5997 6.99966 12.5997C10.0925 12.5997 12.5997 10.0925 12.5997 6.99966C12.5962 3.90831 10.091 1.40314 6.99966 1.39967ZM5.98466 10.4997L4.99486 9.50916L7.46936 7.03466L4.99486 4.56017L5.98466 3.56967L9.44966 7.03466L5.98536 10.4997H5.98466Z" fill="#0E7D7D"/>
</svg>
