<svg width="12" height="10" viewBox="0 0 12 10" fill="none" xmlns="http://www.w3.org/2000/svg">
<path d="M5.1111 2.55656V0.666779C5.1111 0.533001 5.03066 0.412112 4.90755 0.359668C4.78488 0.307668 4.64132 0.33389 4.54577 0.427668L0.76799 4.09434C0.703101 4.157 0.666656 4.24322 0.666656 4.33345C0.666656 4.42367 0.703101 4.50989 0.76799 4.57256L4.54577 8.23922C4.64221 8.33256 4.78532 8.35878 4.90755 8.30722C5.03066 8.25478 5.1111 8.13389 5.1111 8.00011V6.11122H5.74132C7.80177 6.11122 9.70132 7.23122 10.6982 9.03211L10.7075 9.049C10.7671 9.15745 10.88 9.22234 11 9.22234C11.0275 9.22234 11.0551 9.21922 11.0827 9.21211C11.2302 9.17434 11.3333 9.04145 11.3333 8.889C11.3333 5.43389 8.55243 2.61611 5.1111 2.55656Z" fill="#0E7D7D"/>
</svg>
