<svg width="14" height="14" viewBox="0 0 14 14" fill="none" xmlns="http://www.w3.org/2000/svg">
<path d="M7.2828 13.9999C6.88958 14.0011 6.51224 13.8448 6.23499 13.566L0.433904 7.76414C0.127773 7.45888 -0.0291977 7.03479 0.00441357 6.60377L0.374664 1.74164C0.427461 1.01031 1.01016 0.429194 1.74163 0.378381L6.60376 0.00813025C6.64153 -1.52588e-05 6.68003 -1.52588e-05 6.7178 -1.52588e-05C7.11015 0.000992 7.48622 0.156955 7.76412 0.433918L13.566 6.235C13.8438 6.51276 13.9999 6.88955 13.9999 7.28244C13.9999 7.67533 13.8438 8.05212 13.566 8.32988L8.32987 13.566C8.05279 13.8446 7.67576 14.0009 7.2828 13.9999ZM6.71706 1.48099L1.85122 1.85124L1.48097 6.71707L7.2828 12.5189L12.5181 7.28355L6.71706 1.48099ZM4.14085 5.62187C3.4343 5.62202 2.82603 5.12304 2.68805 4.43008C2.55007 3.73713 2.92081 3.04321 3.57353 2.7727C4.22626 2.5022 4.97917 2.73045 5.37181 3.31786C5.76445 3.90528 5.68746 4.68825 5.18792 5.18793C4.91085 5.4666 4.53382 5.62285 4.14085 5.62187Z" fill="#0E7D7D"/>
</svg>
