<svg width="7" height="10" viewBox="0 0 7 10" fill="none" xmlns="http://www.w3.org/2000/svg">
<path d="M4.17059 10H0.586586L0.656586 9.594C1.06725 9.426 1.46859 9.314 1.86059 9.258L3.61059 0.956C3.42392 0.918666 3.24659 0.872 3.07859 0.816C2.91059 0.750666 2.73792 0.680666 2.56059 0.606L2.65859 0.199999H6.24259L6.15859 0.606C5.97192 0.680666 5.77125 0.750666 5.55659 0.816C5.34192 0.872 5.14125 0.918666 4.95459 0.956L3.20459 9.258C3.39125 9.29533 3.57325 9.342 3.75059 9.398C3.93725 9.454 4.10059 9.51933 4.24059 9.594L4.17059 10Z" fill="#3B3B3B"/>
</svg>
