<svg width="16" height="16" viewBox="0 0 16 16" fill="none" xmlns="http://www.w3.org/2000/svg">
<path d="M7.99999 16C3.58373 15.9952 0.00484989 12.4163 0 8.00001V7.84001C0.0879451 3.44364 3.70767 -0.0576205 8.10453 0.000718573C12.5014 0.0590577 16.0269 3.65512 15.9982 8.05228C15.9695 12.4494 12.3972 15.9991 7.99999 16ZM7.99999 1.60001C4.46537 1.60001 1.6 4.46539 1.6 8.00001C1.6 11.5346 4.46537 14.4 7.99999 14.4C11.5346 14.4 14.4 11.5346 14.4 8.00001C14.396 4.46703 11.533 1.60398 7.99999 1.60001Z" fill="white"/>
<path d="M5.14287 7.42857L4.01087 8.55977L7.11738 11.6879L12.5614 6.27406L11.4294 5.14286L7.11738 9.42467L5.14287 7.42857Z" fill="white"/>
</svg>
