<svg width="16" height="20" viewBox="0 0 16 20" fill="none" xmlns="http://www.w3.org/2000/svg">
<path d="M13.9938 18.3182L10.6235 14.9489C9.09907 15.9544 7.06093 15.6434 5.90591 14.2289C4.7509 12.8144 4.85373 10.7553 6.14394 9.46293C7.4362 8.17232 9.49562 8.06904 10.9105 9.2239C12.3254 10.3788 12.6367 12.417 11.631 13.9415L14.9998 17.3122L13.9938 18.3182ZM8.66086 9.84468C7.64225 9.84403 6.76503 10.563 6.56566 11.5618C6.36629 12.5606 6.9003 13.5612 7.84111 13.9516C8.78193 14.342 9.86753 14.0135 10.434 13.167C11.0005 12.3205 10.8901 11.1917 10.1703 10.471C9.77103 10.069 9.22748 9.84348 8.66086 9.84468Z" fill="#0E7D7D"/>
<path fill-rule="evenodd" clip-rule="evenodd" d="M14.3523 11.2261V6.84157C14.3525 6.83374 14.352 6.8259 14.3505 6.8182C14.3479 6.81087 14.3459 6.80334 14.3447 6.79567C14.3408 6.72238 14.3271 6.64996 14.3038 6.58037L14.2962 6.55867C14.2947 6.55425 14.2932 6.54983 14.2917 6.54542C14.2867 6.53068 14.2818 6.51605 14.2754 6.50192C14.235 6.41101 14.1784 6.32817 14.1085 6.25741L9.10142 1.25035C9.03067 1.18041 8.94783 1.12386 8.85691 1.08345C8.83916 1.07431 8.82075 1.0665 8.80183 1.06008L8.77847 1.05257C8.70858 1.02904 8.63592 1.01473 8.56233 1.01001C8.55384 1.0092 8.54545 1.00752 8.53729 1.00501C8.52868 1.00208 8.51968 1.00039 8.51059 1H2.66902C1.74725 1 1 1.74725 1 2.66902V16.0212C1 16.943 1.74725 17.6902 2.66902 17.6902H7.9392V16.0212H2.66902V2.66902H7.67608V6.84157C7.67608 7.30246 8.0497 7.67608 8.51059 7.67608H12.6831V11.2261H14.3523ZM9.3451 6.00706V3.84902L11.5031 6.00706H9.3451Z" fill="#0E7D7D"/>
</svg>
