<svg width="23" height="21" viewBox="0 0 23 21" fill="none" xmlns="http://www.w3.org/2000/svg">
<path fill-rule="evenodd" clip-rule="evenodd" d="M0 0H8.94218C10.0486 0 10.9617 0.827956 11.0958 1.89807C11.2298 0.827956 12.1429 0 13.2494 0H22.1915V18.0879H13.2494C12.1817 18.0879 11.2941 18.8588 11.1127 19.8743V20.2584C11.1127 20.1661 11.107 20.0752 11.0958 19.9859C11.0846 20.0752 11.0788 20.1661 11.0788 20.2584V19.8743C10.8975 18.8588 10.0098 18.0879 8.94218 18.0879H0V0Z" fill="#6E9EBD"/>
<path d="M9.33333 13L6 9.7276L7.48231 8.2724L9.33333 10.0947L14.5177 5L16 6.45521L9.33333 13Z" fill="white"/>
</svg>
