<svg width="12" height="13" viewBox="0 0 12 13" fill="none" xmlns="http://www.w3.org/2000/svg">
<path d="M9.82129 0.00585938V6.47266C9.82129 7.61198 9.47721 8.50749 8.78906 9.15918C8.10091 9.81087 7.15527 10.1367 5.95215 10.1367C4.74902 10.1367 3.81706 9.80859 3.15625 9.15234C2.5 8.49609 2.17188 7.59375 2.17188 6.44531V0.00585938H3.33398V6.52734C3.33398 7.36133 3.56185 8.00163 4.01758 8.44824C4.47331 8.89486 5.14323 9.11816 6.02734 9.11816C6.87044 9.11816 7.51986 8.89486 7.97559 8.44824C8.43132 7.99707 8.65918 7.35221 8.65918 6.51367V0.00585938H9.82129Z" fill="#3B3B3B"/>
<path d="M0.900391 11.4014H11.0928V12.0986H0.900391V11.4014Z" fill="#3B3B3B"/>
</svg>
